<?xml version="1.0" encoding="utf-8"?>
<!-- Generator: Adobe Illustrator 26.0.1, SVG Export Plug-In . SVG Version: 6.00 Build 0)  -->
<svg version="1.1" xmlns="http://www.w3.org/2000/svg" xmlns:xlink="http://www.w3.org/1999/xlink" x="0px" y="0px"
	 viewBox="0 0 50 50" style="enable-background:new 0 0 50 50;" xml:space="preserve">
<style type="text/css">
	.st0{fill:none;stroke:#683C11;stroke-width:4;stroke-miterlimit:10;}
	.st1{fill:none;stroke:#683C11;stroke-width:2;stroke-miterlimit:10;}
	.st2{fill:#683C11;}
	.st3{fill:none;stroke:#683C11;stroke-miterlimit:10;}
</style>
<g id="Calque_2">
</g>
<g id="Calque_1">
	<path class="st0" d="M45,25c0,11.05-8.95,20-20,20S5,36.05,5,25S13.95,5,25,5"/>
	<line class="st1" x1="42.81" y1="22.38" x2="46.77" y2="21.8"/>
	<g>
		<path class="st2" d="M25.5,3.51c11.46,0.26,20.73,9.54,20.99,20.99h-3C43.23,14.7,35.3,6.77,25.5,6.51V3.51 M25,3v4
			c9.93,0,18,8.07,18,18h4C47,12.87,37.13,3,25,3L25,3z"/>
	</g>
	<line class="st3" x1="42.6" y1="19.81" x2="46.15" y2="18.93"/>
	<line class="st3" x1="41.33" y1="16.53" x2="44.49" y2="14.99"/>
</g>
</svg>
