<?xml version="1.0" encoding="utf-8"?>
<!-- Generator: Adobe Illustrator 26.0.1, SVG Export Plug-In . SVG Version: 6.00 Build 0)  -->
<svg version="1.1" xmlns="http://www.w3.org/2000/svg" xmlns:xlink="http://www.w3.org/1999/xlink" x="0px" y="0px"
	 viewBox="0 0 50 50" style="enable-background:new 0 0 50 50;" xml:space="preserve">
<style type="text/css">
	.st0{fill:none;stroke:#009640;stroke-miterlimit:10;}
</style>
<g id="Calque_1">
</g>
<g id="Calque_2">
	<path class="st0" d="M12.39,25.62c-0.33-0.36-0.34-0.91-0.02-1.28c1.53-1.75,6.24-6.46,12.7-6.5c6.47-0.04,11.09,4.74,12.58,6.5
		c0.31,0.37,0.3,0.91-0.03,1.26c-1.59,1.74-6.53,6.55-12.62,6.55C18.91,32.16,13.98,27.37,12.39,25.62z"/>
	<ellipse class="st0" cx="25" cy="25" rx="5.48" ry="4.77"/>
	<path class="st0" d="M30.64,9.01c-0.21-0.24-0.22-0.59-0.01-0.83c0.99-1.14,4.06-4.21,8.27-4.23c4.21-0.03,7.22,3.08,8.19,4.23
		c0.2,0.24,0.19,0.59-0.02,0.82c-1.03,1.13-4.25,4.26-8.22,4.26C34.89,13.27,31.69,10.15,30.64,9.01z"/>
	<ellipse class="st0" cx="38.86" cy="8.61" rx="3.57" ry="3.11"/>
	<path class="st0" d="M30.64,41.5c-0.21-0.24-0.22-0.59-0.01-0.83c0.99-1.14,4.06-4.21,8.27-4.23c4.21-0.03,7.22,3.08,8.19,4.23
		c0.2,0.24,0.19,0.59-0.02,0.82c-1.03,1.13-4.25,4.26-8.22,4.26C34.89,45.76,31.69,42.64,30.64,41.5z"/>
	<ellipse class="st0" cx="38.86" cy="41.1" rx="3.57" ry="3.11"/>
	<path class="st0" d="M2.93,9.16C2.71,8.92,2.71,8.57,2.92,8.33c0.99-1.14,4.06-4.21,8.27-4.23c4.21-0.03,7.22,3.08,8.19,4.23
		c0.2,0.24,0.19,0.59-0.02,0.82c-1.03,1.13-4.25,4.26-8.22,4.26C7.18,13.42,3.97,10.3,2.93,9.16z"/>
	<ellipse class="st0" cx="11.14" cy="8.76" rx="3.57" ry="3.11"/>
	<path class="st0" d="M2.93,41.64c-0.21-0.24-0.22-0.59-0.01-0.83c0.99-1.14,4.06-4.21,8.27-4.23c4.21-0.03,7.22,3.08,8.19,4.23
		c0.2,0.24,0.19,0.59-0.02,0.82c-1.03,1.13-4.25,4.26-8.22,4.26C7.18,45.9,3.97,42.78,2.93,41.64z"/>
	<ellipse class="st0" cx="11.14" cy="41.24" rx="3.57" ry="3.11"/>
</g>
</svg>
