<?xml version="1.0" encoding="utf-8"?>
<!-- Generator: Adobe Illustrator 26.0.1, SVG Export Plug-In . SVG Version: 6.00 Build 0)  -->
<svg version="1.1" xmlns="http://www.w3.org/2000/svg" xmlns:xlink="http://www.w3.org/1999/xlink" x="0px" y="0px"
	 viewBox="0 0 50 50" style="enable-background:new 0 0 50 50;" xml:space="preserve">
<style type="text/css">
	.st0{fill:#683C11;}
</style>
<g id="Calque_1">
</g>
<g id="Calque_2">
	<path class="st0" d="M25,9.1c-13.81,0-25,11.19-25,25h3.12c0-12,9.87-21.88,21.88-21.88c12,0,21.88,9.87,21.88,21.88H50
		C50,20.3,38.81,9.1,25,9.1z"/>
	<path class="st0" d="M19.3,34.1c0-2.76,2.24-5,5-5s5,2.24,5,5"/>
	<polygon class="st0" points="29.66,19.53 23.21,29.66 28.14,31.44 	"/>
	<path class="st0" d="M4.41,34.1H1.88c-0.55,0-1-0.45-1-1v0c0-0.55,0.45-1,1-1h2.53c0.55,0,1,0.45,1,1v0
		C5.41,33.65,4.96,34.1,4.41,34.1z"/>
	<path class="st0" d="M23.3,14.1v-2.53c0-0.55,0.45-1,1-1h0c0.55,0,1,0.45,1,1v2.53c0,0.55-0.45,1-1,1h0
		C23.75,15.1,23.3,14.65,23.3,14.1z"/>
	<path class="st0" d="M45.71,32.1h2.53c0.55,0,1,0.45,1,1v0c0,0.55-0.45,1-1,1h-2.53c-0.55,0-1-0.45-1-1v0
		C44.71,32.55,45.16,32.1,45.71,32.1z"/>
</g>
</svg>
