<?xml version="1.0" encoding="utf-8"?>
<!-- Generator: Adobe Illustrator 26.0.1, SVG Export Plug-In . SVG Version: 6.00 Build 0)  -->
<svg version="1.1" id="Calque_1" xmlns="http://www.w3.org/2000/svg" xmlns:xlink="http://www.w3.org/1999/xlink" x="0px" y="0px"
	 viewBox="0 0 50 50" style="enable-background:new 0 0 50 50;" xml:space="preserve">
<style type="text/css">
	.st0{fill:none;stroke:#E30613;stroke-miterlimit:10;}
</style>
<g id="XMLID_00000015350571491272775110000005907476425110481808_">
	<path class="st0" d="M44.99,24.74l-2.49,0.03C42.38,15.21,34.59,7.49,25,7.49V5C35.96,5,44.86,13.81,44.99,24.74z"/>
	<path class="st0" d="M37.49,24.84L35,24.87C34.93,19.41,30.48,15,25,15v-2.5C31.85,12.5,37.41,18.01,37.49,24.84z"/>
	<path class="st0" d="M35,24.87L25,25V15C30.48,15,34.93,19.41,35,24.87z"/>
	<path class="st0" d="M39.99,24.81C39.9,16.62,33.22,10,25,10V7.49c9.59,0,17.38,7.72,17.5,17.28L39.99,24.81z"/>
	<path class="st0" d="M37.49,24.84l2.5-0.03l2.51-0.04l2.49-0.03C45,24.83,45,24.91,45,25c0,11.05-8.95,20-20,20S5,36.05,5,25
		S13.95,5,25,5v2.49V10v2.5V15v10l10-0.13L37.49,24.84z"/>
	<path class="st0" d="M25,10c8.22,0,14.9,6.62,14.99,14.81l-2.5,0.03C37.41,18.01,31.85,12.5,25,12.5V10z"/>
	<line class="st0" x1="44.99" y1="24.74" x2="45" y2="24.74"/>
</g>
</svg>
