<?xml version="1.0" encoding="utf-8"?>
<!-- Generator: Adobe Illustrator 26.0.1, SVG Export Plug-In . SVG Version: 6.00 Build 0)  -->
<svg version="1.1" id="Calque_1" xmlns="http://www.w3.org/2000/svg" xmlns:xlink="http://www.w3.org/1999/xlink" x="0px" y="0px"
	 viewBox="0 0 50 50" style="enable-background:new 0 0 50 50;" xml:space="preserve">
<style type="text/css">
	.st0{fill:none;stroke:#683C11;stroke-miterlimit:10;}
	.st1{fill:#FFFFFF;stroke:#1D1D1B;stroke-miterlimit:10;}
</style>
<g id="Calque_1_00000083806991238098260430000014439305910312640416_">
	<ellipse class="st0" cx="25" cy="44.86" rx="20.05" ry="2.79"/>
	<ellipse class="st0" cx="25" cy="9.06" rx="20.05" ry="2.79"/>
	<path class="st1" d="M9.13,7.93"/>
	<path class="st1" d="M-6.61,41.07"/>
	<path class="st0" d="M41.92,10.76c0,0,2.85,15.93-13.1,16.22c0,0-0.14,0-0.34,0.01C44.22,27.39,41.4,43.2,41.4,43.2"/>
	<path class="st0" d="M8.61,43.19c0,0-2.85-15.93,13.1-16.22c0,0,0.14,0,0.34-0.01C6.31,26.57,9.13,10.76,9.13,10.76"/>
	<path class="st0" d="M23.97,31.17l-5.26,9.12c-0.46,0.79,0.11,1.79,1.03,1.79h10.53c0.92,0,1.49-0.99,1.03-1.79l-5.26-9.12
		C25.57,30.38,24.43,30.38,23.97,31.17z"/>
</g>
<g id="Calque_2_00000028321188315418148450000017031679744358643871_">
</g>
</svg>
