<?xml version="1.0" encoding="utf-8"?>
<!-- Generator: Adobe Illustrator 26.0.1, SVG Export Plug-In . SVG Version: 6.00 Build 0)  -->
<svg version="1.1" id="Calque_1" xmlns="http://www.w3.org/2000/svg" xmlns:xlink="http://www.w3.org/1999/xlink" x="0px" y="0px"
	 viewBox="0 0 50 50" style="enable-background:new 0 0 50 50;" xml:space="preserve">
<style type="text/css">
	.st0{fill:none;stroke:#683C11;}
	.st1{fill:#683C11;stroke:#683C11;stroke-miterlimit:10;}
	.st2{stroke:#683C11;stroke-miterlimit:10;}
</style>
<g>
	<circle class="st0" cx="25.5" cy="25.5" r="18.5"/>
	<rect x="24" y="2" class="st1" width="3" height="5"/>
	<path class="st1" d="M22,3L22,3c0-0.55,0.45-1,1-1h5c0.55,0,1,0.45,1,1l0,0c0,0.55-0.45,1-1,1h-5C22.45,4,22,3.55,22,3z"/>
	<circle class="st0" cx="25.5" cy="25.5" r="2.5"/>
	<path class="st2" d="M25.5,18L25.5,18c0.28,0,0.5,0.22,0.5,0.5v4c0,0.28-0.22,0.5-0.5,0.5l0,0c-0.28,0-0.5-0.22-0.5-0.5v-4
		C25,18.22,25.22,18,25.5,18z"/>
	<path class="st2" d="M7.5,25h2c0.28,0,0.5,0.22,0.5,0.5l0,0c0,0.28-0.22,0.5-0.5,0.5h-2C7.22,26,7,25.78,7,25.5l0,0
		C7,25.22,7.22,25,7.5,25z"/>
	<path class="st2" d="M41.5,25h2c0.28,0,0.5,0.22,0.5,0.5l0,0c0,0.28-0.22,0.5-0.5,0.5h-2c-0.28,0-0.5-0.22-0.5-0.5l0,0
		C41,25.22,41.22,25,41.5,25z"/>
	<path class="st2" d="M25,43.5v-2c0-0.28,0.22-0.5,0.5-0.5l0,0c0.28,0,0.5,0.22,0.5,0.5v2c0,0.28-0.22,0.5-0.5,0.5l0,0
		C25.22,44,25,43.78,25,43.5z"/>
	<path class="st2" d="M25,9.5v-2C25,7.22,25.22,7,25.5,7l0,0C25.78,7,26,7.22,26,7.5v2c0,0.28-0.22,0.5-0.5,0.5l0,0
		C25.22,10,25,9.78,25,9.5z"/>
	<path class="st2" d="M36.35,13.77l1.41-1.41c0.2-0.2,0.51-0.2,0.71,0l0,0c0.2,0.2,0.2,0.51,0,0.71l-1.41,1.41
		c-0.2,0.2-0.51,0.2-0.71,0l0,0C36.16,14.28,36.16,13.96,36.35,13.77z"/>
	<path class="st2" d="M12.35,37.77l1.41-1.41c0.2-0.2,0.51-0.2,0.71,0l0,0c0.2,0.2,0.2,0.51,0,0.71l-1.41,1.41
		c-0.2,0.2-0.51,0.2-0.71,0l0,0C12.16,38.28,12.16,37.96,12.35,37.77z"/>
	<path class="st2" d="M13.77,14.47l-1.41-1.41c-0.2-0.2-0.2-0.51,0-0.71l0,0c0.2-0.2,0.51-0.2,0.71,0l1.41,1.41
		c0.2,0.2,0.2,0.51,0,0.71l0,0C14.28,14.67,13.96,14.67,13.77,14.47z"/>
	<path class="st2" d="M37.33,39.04l-1.41-1.41c-0.2-0.2-0.2-0.51,0-0.71l0,0c0.2-0.2,0.51-0.2,0.71,0l1.41,1.41
		c0.2,0.2,0.2,0.51,0,0.71l0,0C37.84,39.23,37.52,39.23,37.33,39.04z"/>
</g>
</svg>
